<svg width="479" height="121" viewBox="0 0 479 121" fill="none" xmlns="http://www.w3.org/2000/svg">
<path d="M17.703 44.671C15.1003 44.671 12.4977 44.3863 9.895 43.817C7.29233 43.2477 5.03533 42.414 3.124 41.316C1.98533 40.706 1.27367 39.8927 0.989 38.876C0.704334 37.8187 0.765333 36.802 1.172 35.826C1.57867 34.85 2.22933 34.1587 3.124 33.752C4.01867 33.3453 5.09633 33.447 6.357 34.057C7.98367 34.9923 9.79333 35.6837 11.786 36.131C13.7787 36.5783 15.751 36.802 17.703 36.802C20.631 36.802 22.7253 36.3547 23.986 35.46C25.2873 34.5247 25.938 33.3657 25.938 31.983C25.938 30.8037 25.4907 29.8683 24.596 29.177C23.7013 28.4857 22.1357 27.896 19.899 27.408L13.006 25.944C5.32 24.3173 1.477 20.332 1.477 13.988C1.477 11.2633 2.209 8.88433 3.673 6.851C5.137 4.777 7.17033 3.17067 9.773 2.032C12.4163 0.893332 15.4663 0.323999 18.923 0.323999C21.2003 0.323999 23.437 0.608665 25.633 1.178C27.829 1.70667 29.7607 2.49967 31.428 3.557C32.4447 4.167 33.075 4.96 33.319 5.936C33.563 6.912 33.4817 7.84733 33.075 8.742C32.709 9.63666 32.0583 10.267 31.123 10.633C30.2283 10.999 29.11 10.8567 27.768 10.206C26.426 9.51466 25.0027 9.00633 23.498 8.681C21.9933 8.35567 20.448 8.193 18.862 8.193C16.3 8.193 14.3073 8.70133 12.884 9.718C11.5013 10.694 10.81 11.975 10.81 13.561C10.81 14.7403 11.237 15.696 12.091 16.428C12.945 17.16 14.4293 17.7497 16.544 18.197L23.437 19.661C31.3263 21.369 35.271 25.2323 35.271 31.251C35.271 33.935 34.539 36.2937 33.075 38.327C31.6517 40.3197 29.6183 41.8853 26.975 43.024C24.3723 44.122 21.2817 44.671 17.703 44.671ZM52.402 44.549C49.9213 44.549 48.193 43.3087 47.217 40.828L38.616 19.539C37.9653 17.8717 37.9653 16.4687 38.616 15.33C39.3073 14.1507 40.5883 13.561 42.459 13.561C43.5163 13.561 44.3703 13.8253 45.021 14.354C45.7123 14.842 46.3223 15.7977 46.851 17.221L52.829 33.264L59.112 16.428C59.8033 14.5167 61.1047 13.561 63.016 13.561C64.9273 13.561 66.249 14.5167 66.981 16.428L73.203 33.508L79.303 16.977C79.791 15.6757 80.401 14.781 81.133 14.293C81.9057 13.805 82.7597 13.561 83.695 13.561C85.4437 13.561 86.5823 14.171 87.111 15.391C87.6397 16.611 87.5787 17.9937 86.928 19.539L78.388 40.828C77.412 43.3087 75.6837 44.549 73.203 44.549C70.7223 44.549 68.994 43.3087 68.018 40.828L62.711 26.981L57.526 40.767C56.5907 43.2883 54.8827 44.549 52.402 44.549ZM107.461 44.671C103.923 44.671 100.873 44.0407 98.3112 42.78C95.7898 41.4787 93.8378 39.669 92.4552 37.351C91.1132 34.9923 90.4422 32.227 90.4422 29.055C90.4422 25.9643 91.0928 23.26 92.3942 20.942C93.7362 18.5833 95.5458 16.7533 97.8232 15.452C100.141 14.11 102.805 13.439 105.814 13.439C110.165 13.439 113.622 14.8217 116.184 17.587C118.746 20.3117 120.027 24.0123 120.027 28.689C120.027 30.2343 119.072 31.007 117.16 31.007H99.2262C99.5515 33.3657 100.405 35.094 101.788 36.192C103.211 37.2493 105.163 37.778 107.644 37.778C108.62 37.778 109.718 37.6763 110.938 37.473C112.199 37.229 113.398 36.8223 114.537 36.253C115.716 35.6837 116.713 35.582 117.526 35.948C118.339 36.2733 118.888 36.8427 119.173 37.656C119.498 38.4693 119.498 39.3233 119.173 40.218C118.888 41.072 118.217 41.7837 117.16 42.353C115.737 43.1257 114.151 43.695 112.402 44.061C110.694 44.4677 109.047 44.671 107.461 44.671ZM106.18 19.539C104.228 19.539 102.642 20.1287 101.422 21.308C100.243 22.4873 99.5108 24.1343 99.2262 26.249H112.402C112.158 21.7757 110.084 19.539 106.18 19.539ZM140.94 44.671C137.402 44.671 134.352 44.0407 131.79 42.78C129.268 41.4787 127.316 39.669 125.934 37.351C124.592 34.9923 123.921 32.227 123.921 29.055C123.921 25.9643 124.571 23.26 125.873 20.942C127.215 18.5833 129.024 16.7533 131.302 15.452C133.62 14.11 136.283 13.439 139.293 13.439C143.644 13.439 147.101 14.8217 149.663 17.587C152.225 20.3117 153.506 24.0123 153.506 28.689C153.506 30.2343 152.55 31.007 150.639 31.007H132.705C133.03 33.3657 133.884 35.094 135.267 36.192C136.69 37.2493 138.642 37.778 141.123 37.778C142.099 37.778 143.197 37.6763 144.417 37.473C145.677 37.229 146.877 36.8223 148.016 36.253C149.195 35.6837 150.191 35.582 151.005 35.948C151.818 36.2733 152.367 36.8427 152.652 37.656C152.977 38.4693 152.977 39.3233 152.652 40.218C152.367 41.072 151.696 41.7837 150.639 42.353C149.215 43.1257 147.629 43.695 145.881 44.061C144.173 44.4677 142.526 44.671 140.94 44.671ZM139.659 19.539C137.707 19.539 136.121 20.1287 134.901 21.308C133.721 22.4873 132.989 24.1343 132.705 26.249H145.881C145.637 21.7757 143.563 19.539 139.659 19.539ZM173.385 44.671C164.967 44.671 160.758 40.584 160.758 32.41V20.942H158.196C155.797 20.942 154.597 19.8033 154.597 17.526C154.597 15.208 155.797 14.049 158.196 14.049H160.758V9.413C160.758 6.28166 162.304 4.716 165.394 4.716C168.444 4.716 169.969 6.28166 169.969 9.413V14.049H175.764C178.123 14.049 179.302 15.208 179.302 17.526C179.302 19.8033 178.123 20.942 175.764 20.942H169.969V32.044C169.969 33.752 170.356 35.033 171.128 35.887C171.942 36.741 173.223 37.168 174.971 37.168C175.581 37.168 176.151 37.107 176.679 36.985C177.208 36.863 177.696 36.7817 178.143 36.741C178.713 36.7003 179.18 36.8833 179.546 37.29C179.912 37.6967 180.095 38.5303 180.095 39.791C180.095 40.8077 179.933 41.682 179.607 42.414C179.282 43.1053 178.713 43.6137 177.899 43.939C177.371 44.1423 176.639 44.305 175.703 44.427C174.809 44.5897 174.036 44.671 173.385 44.671ZM7.15 120.549C5.60467 120.549 4.405 120.122 3.551 119.268C2.73767 118.414 2.331 117.174 2.331 115.547V81.936C2.331 78.642 3.978 76.995 7.272 76.995H28.134C30.6147 76.995 31.855 78.215 31.855 80.655C31.855 83.1357 30.6147 84.376 28.134 84.376H11.786V94.868H26.792C29.3133 94.868 30.574 96.088 30.574 98.528C30.574 101.009 29.3133 102.249 26.792 102.249H11.786V115.547C11.786 118.882 10.2407 120.549 7.15 120.549ZM49.7104 120.671C46.4977 120.671 43.6917 120.041 41.2924 118.78C38.9337 117.479 37.1037 115.669 35.8024 113.351C34.501 110.992 33.8504 108.207 33.8504 104.994C33.8504 101.822 34.501 99.077 35.8024 96.759C37.1037 94.4003 38.9337 92.5907 41.2924 91.33C43.6917 90.0693 46.4977 89.439 49.7104 89.439C52.923 89.439 55.7087 90.0693 58.0674 91.33C60.4667 92.5907 62.317 94.4003 63.6184 96.759C64.9604 99.077 65.6314 101.822 65.6314 104.994C65.6314 108.207 64.9604 110.992 63.6184 113.351C62.317 115.669 60.4667 117.479 58.0674 118.78C55.7087 120.041 52.923 120.671 49.7104 120.671ZM49.7104 113.778C51.6624 113.778 53.2484 113.066 54.4684 111.643C55.729 110.22 56.3594 108.003 56.3594 104.994C56.3594 102.025 55.729 99.8497 54.4684 98.467C53.2484 97.0437 51.6624 96.332 49.7104 96.332C47.7584 96.332 46.1724 97.0437 44.9524 98.467C43.7324 99.8497 43.1224 102.025 43.1224 104.994C43.1224 108.003 43.7324 110.22 44.9524 111.643C46.1724 113.066 47.7584 113.778 49.7104 113.778ZM75.9933 120.549C72.8213 120.549 71.2353 118.983 71.2353 115.852V94.197C71.2353 91.1063 72.7399 89.561 75.7493 89.561C78.7586 89.561 80.2633 91.1063 80.2633 94.197V95.295C81.7273 91.6757 84.7569 89.7237 89.3523 89.439C90.3689 89.3577 91.1416 89.622 91.6703 90.232C92.2396 90.8013 92.5446 91.757 92.5853 93.099C92.6666 94.3597 92.4023 95.356 91.7923 96.088C91.2229 96.82 90.2469 97.2673 88.8643 97.43L87.4613 97.552C82.9066 97.9993 80.6293 100.317 80.6293 104.506V115.852C80.6293 118.983 79.0839 120.549 75.9933 120.549ZM118.962 120.549C117.417 120.549 116.237 120.122 115.424 119.268C114.611 118.414 114.204 117.214 114.204 115.669V81.814C114.204 78.6013 115.81 76.995 119.023 76.995H133.846C138.645 76.995 142.345 78.215 144.948 80.655C147.551 83.0543 148.852 86.4093 148.852 90.72C148.852 95.0307 147.551 98.406 144.948 100.846C142.345 103.286 138.645 104.506 133.846 104.506H123.659V115.669C123.659 117.214 123.252 118.414 122.439 119.268C121.666 120.122 120.507 120.549 118.962 120.549ZM123.659 97.186H132.26C137.262 97.186 139.763 95.0307 139.763 90.72C139.763 86.4907 137.262 84.376 132.26 84.376H123.659V97.186ZM164.716 120.671C157.518 120.671 153.919 116.665 153.919 108.654V81.143C153.919 78.0117 155.464 76.446 158.555 76.446C161.605 76.446 163.13 78.0117 163.13 81.143V108.288C163.13 109.955 163.476 111.196 164.167 112.009C164.899 112.782 165.855 113.168 167.034 113.168C167.359 113.168 167.664 113.148 167.949 113.107C168.274 113.066 168.579 113.046 168.864 113.046C169.515 113.005 169.962 113.209 170.206 113.656C170.491 114.103 170.633 115.018 170.633 116.401C170.633 118.76 169.637 120.102 167.644 120.427C167.237 120.468 166.77 120.508 166.241 120.549C165.712 120.63 165.204 120.671 164.716 120.671ZM189.489 120.671C185.951 120.671 182.901 120.041 180.339 118.78C177.818 117.479 175.866 115.669 174.483 113.351C173.141 110.992 172.47 108.227 172.47 105.055C172.47 101.964 173.121 99.26 174.422 96.942C175.764 94.5833 177.574 92.7533 179.851 91.452C182.169 90.11 184.833 89.439 187.842 89.439C192.194 89.439 195.65 90.8217 198.212 93.587C200.774 96.3117 202.055 100.012 202.055 104.689C202.055 106.234 201.1 107.007 199.188 107.007H181.254C181.58 109.366 182.434 111.094 183.816 112.192C185.24 113.249 187.192 113.778 189.672 113.778C190.648 113.778 191.746 113.676 192.966 113.473C194.227 113.229 195.427 112.822 196.565 112.253C197.745 111.684 198.741 111.582 199.554 111.948C200.368 112.273 200.917 112.843 201.201 113.656C201.527 114.469 201.527 115.323 201.201 116.218C200.917 117.072 200.246 117.784 199.188 118.353C197.765 119.126 196.179 119.695 194.43 120.061C192.722 120.468 191.075 120.671 189.489 120.671ZM188.208 95.539C186.256 95.539 184.67 96.1287 183.45 97.308C182.271 98.4873 181.539 100.134 181.254 102.249H194.43C194.186 97.7757 192.112 95.539 188.208 95.539ZM217.539 120.671C215.302 120.671 213.33 120.244 211.622 119.39C209.914 118.536 208.552 117.377 207.535 115.913C206.559 114.449 206.071 112.802 206.071 110.972C206.071 108.817 206.64 107.088 207.779 105.787C208.918 104.486 210.768 103.571 213.33 103.042C215.892 102.473 219.288 102.188 223.517 102.188H225.713V101.151C225.713 99.3617 225.306 98.101 224.493 97.369C223.68 96.5963 222.297 96.21 220.345 96.21C219.247 96.21 218.047 96.3523 216.746 96.637C215.445 96.881 214.042 97.308 212.537 97.918C211.398 98.406 210.443 98.4467 209.67 98.04C208.897 97.5927 208.389 96.942 208.145 96.088C207.901 95.1933 207.962 94.2987 208.328 93.404C208.735 92.5093 209.507 91.8587 210.646 91.452C212.557 90.72 214.347 90.2117 216.014 89.927C217.722 89.6017 219.288 89.439 220.711 89.439C225.347 89.439 228.804 90.4963 231.081 92.611C233.358 94.685 234.497 97.918 234.497 102.31V115.852C234.497 118.983 233.074 120.549 230.227 120.549C227.34 120.549 225.896 118.983 225.896 115.852V115.486C225.286 117.072 224.249 118.333 222.785 119.268C221.362 120.203 219.613 120.671 217.539 120.671ZM219.613 114.51C221.321 114.51 222.765 113.92 223.944 112.741C225.123 111.562 225.713 110.037 225.713 108.166V106.946H223.578C220.447 106.946 218.23 107.231 216.929 107.8C215.628 108.329 214.977 109.264 214.977 110.606C214.977 111.745 215.363 112.68 216.136 113.412C216.949 114.144 218.108 114.51 219.613 114.51ZM252.836 120.671C251.047 120.671 249.196 120.508 247.285 120.183C245.414 119.858 243.706 119.309 242.161 118.536C241.144 118.007 240.473 117.336 240.148 116.523C239.863 115.71 239.863 114.917 240.148 114.144C240.433 113.371 240.941 112.802 241.673 112.436C242.405 112.029 243.259 112.029 244.235 112.436C245.902 113.127 247.427 113.615 248.81 113.9C250.233 114.185 251.596 114.327 252.897 114.327C254.605 114.327 255.866 114.063 256.679 113.534C257.492 112.965 257.899 112.233 257.899 111.338C257.899 109.915 256.862 109.02 254.788 108.654L248.383 107.495C245.821 107.048 243.869 106.133 242.527 104.75C241.185 103.367 240.514 101.558 240.514 99.321C240.514 97.2877 241.083 95.539 242.222 94.075C243.361 92.611 244.926 91.4723 246.919 90.659C248.912 89.8457 251.209 89.439 253.812 89.439C257.391 89.439 260.563 90.1303 263.328 91.513C264.263 91.9603 264.833 92.5907 265.036 93.404C265.28 94.2173 265.239 95.0103 264.914 95.783C264.589 96.5557 264.06 97.1453 263.328 97.552C262.596 97.918 261.722 97.8773 260.705 97.43C259.363 96.82 258.143 96.393 257.045 96.149C255.947 95.8643 254.91 95.722 253.934 95.722C252.104 95.722 250.782 96.027 249.969 96.637C249.156 97.2063 248.749 97.9383 248.749 98.833C248.749 100.256 249.705 101.151 251.616 101.517L258.021 102.676C260.664 103.123 262.677 104.018 264.06 105.36C265.443 106.661 266.134 108.451 266.134 110.728C266.134 113.859 264.914 116.299 262.474 118.048C260.034 119.797 256.821 120.671 252.836 120.671ZM282.433 120.671C278.61 120.671 275.784 119.614 273.954 117.499C272.164 115.384 271.27 112.212 271.27 107.983V94.197C271.27 91.1063 272.795 89.561 275.845 89.561C278.935 89.561 280.481 91.1063 280.481 94.197V108.227C280.481 111.765 282.006 113.534 285.056 113.534C286.804 113.534 288.228 112.924 289.326 111.704C290.464 110.443 291.034 108.796 291.034 106.763V94.197C291.034 91.1063 292.559 89.561 295.609 89.561C298.699 89.561 300.245 91.1063 300.245 94.197V115.852C300.245 118.983 298.76 120.549 295.792 120.549C294.328 120.549 293.209 120.142 292.437 119.329C291.664 118.516 291.278 117.377 291.278 115.913C289.285 119.085 286.337 120.671 282.433 120.671ZM312.13 120.549C308.958 120.549 307.372 118.983 307.372 115.852V94.197C307.372 91.1063 308.877 89.561 311.886 89.561C314.895 89.561 316.4 91.1063 316.4 94.197V95.295C317.864 91.6757 320.894 89.7237 325.489 89.439C326.506 89.3577 327.278 89.622 327.807 90.232C328.376 90.8013 328.681 91.757 328.722 93.099C328.803 94.3597 328.539 95.356 327.929 96.088C327.36 96.82 326.384 97.2673 325.001 97.43L323.598 97.552C319.043 97.9993 316.766 100.317 316.766 104.506V115.852C316.766 118.983 315.221 120.549 312.13 120.549ZM347.53 120.671C343.992 120.671 340.942 120.041 338.38 118.78C335.858 117.479 333.906 115.669 332.524 113.351C331.182 110.992 330.511 108.227 330.511 105.055C330.511 101.964 331.161 99.26 332.463 96.942C333.805 94.5833 335.614 92.7533 337.892 91.452C340.21 90.11 342.873 89.439 345.883 89.439C350.234 89.439 353.691 90.8217 356.253 93.587C358.815 96.3117 360.096 100.012 360.096 104.689C360.096 106.234 359.14 107.007 357.229 107.007H339.295C339.62 109.366 340.474 111.094 341.857 112.192C343.28 113.249 345.232 113.778 347.713 113.778C348.689 113.778 349.787 113.676 351.007 113.473C352.267 113.229 353.467 112.822 354.606 112.253C355.785 111.684 356.781 111.582 357.595 111.948C358.408 112.273 358.957 112.843 359.242 113.656C359.567 114.469 359.567 115.323 359.242 116.218C358.957 117.072 358.286 117.784 357.229 118.353C355.805 119.126 354.219 119.695 352.471 120.061C350.763 120.468 349.116 120.671 347.53 120.671ZM346.249 95.539C344.297 95.539 342.711 96.1287 341.491 97.308C340.311 98.4873 339.579 100.134 339.295 102.249H352.471C352.227 97.7757 350.153 95.539 346.249 95.539ZM369.906 120.305C368.279 120.305 366.978 119.817 366.002 118.841C365.067 117.865 364.599 116.604 364.599 115.059C364.599 113.554 365.067 112.334 366.002 111.399C366.978 110.423 368.279 109.935 369.906 109.935C371.533 109.935 372.793 110.423 373.688 111.399C374.623 112.334 375.091 113.554 375.091 115.059C375.091 116.604 374.623 117.865 373.688 118.841C372.793 119.817 371.533 120.305 369.906 120.305Z" fill="black"/>
<path d="M205.935 44.549C204.389 44.549 203.21 44.122 202.397 43.268C201.583 42.414 201.177 41.2143 201.177 39.669V5.326C201.177 2.07266 202.763 0.445997 205.935 0.445997C209.066 0.445997 210.632 2.07266 210.632 5.326V39.669C210.632 42.9223 209.066 44.549 205.935 44.549ZM233.072 44.671C229.819 44.671 226.972 44.0407 224.532 42.78C222.133 41.4787 220.282 39.6487 218.981 37.29C217.68 34.9313 217.029 32.1457 217.029 28.933C217.029 25.7203 217.68 22.955 218.981 20.637C220.282 18.319 222.133 16.55 224.532 15.33C226.972 14.0693 229.819 13.439 233.072 13.439C234.333 13.439 235.675 13.6017 237.098 13.927C238.562 14.2117 239.965 14.72 241.307 15.452C242.324 15.94 242.954 16.6313 243.198 17.526C243.442 18.38 243.381 19.234 243.015 20.088C242.69 20.942 242.141 21.5723 241.368 21.979C240.636 22.345 239.762 22.2637 238.745 21.735C237.118 20.881 235.532 20.454 233.987 20.454C231.588 20.454 229.717 21.2063 228.375 22.711C227.074 24.175 226.423 26.2693 226.423 28.994C226.423 31.678 227.074 33.7927 228.375 35.338C229.717 36.8427 231.588 37.595 233.987 37.595C234.719 37.595 235.492 37.5137 236.305 37.351C237.118 37.1477 237.932 36.8223 238.745 36.375C239.762 35.8463 240.636 35.7853 241.368 36.192C242.141 36.5987 242.669 37.229 242.954 38.083C243.239 38.8963 243.259 39.7503 243.015 40.645C242.771 41.5397 242.161 42.231 241.185 42.719C239.802 43.4103 238.42 43.8983 237.037 44.183C235.654 44.5083 234.333 44.671 233.072 44.671ZM262.582 44.671C259.044 44.671 255.994 44.0407 253.432 42.78C250.911 41.4787 248.959 39.669 247.576 37.351C246.234 34.9923 245.563 32.227 245.563 29.055C245.563 25.9643 246.214 23.26 247.515 20.942C248.857 18.5833 250.667 16.7533 252.944 15.452C255.262 14.11 257.926 13.439 260.935 13.439C265.287 13.439 268.743 14.8217 271.305 17.587C273.867 20.3117 275.148 24.0123 275.148 28.689C275.148 30.2343 274.193 31.007 272.281 31.007H254.347C254.673 33.3657 255.527 35.094 256.909 36.192C258.333 37.2493 260.285 37.778 262.765 37.778C263.741 37.778 264.839 37.6763 266.059 37.473C267.32 37.229 268.52 36.8223 269.658 36.253C270.838 35.6837 271.834 35.582 272.647 35.948C273.461 36.2733 274.01 36.8427 274.294 37.656C274.62 38.4693 274.62 39.3233 274.294 40.218C274.01 41.072 273.339 41.7837 272.281 42.353C270.858 43.1257 269.272 43.695 267.523 44.061C265.815 44.4677 264.168 44.671 262.582 44.671ZM261.301 19.539C259.349 19.539 257.763 20.1287 256.543 21.308C255.364 22.4873 254.632 24.1343 254.347 26.249H267.523C267.279 21.7757 265.205 19.539 261.301 19.539ZM319.198 44.671C314.562 44.671 310.597 43.756 307.303 41.926C304.009 40.096 301.467 37.534 299.678 34.24C297.929 30.9053 297.055 26.981 297.055 22.467C297.055 17.9937 297.929 14.11 299.678 10.816C301.467 7.48133 304.009 4.899 307.303 3.069C310.597 1.239 314.562 0.323999 319.198 0.323999C321.231 0.323999 323.285 0.588332 325.359 1.117C327.474 1.64566 329.304 2.35733 330.849 3.252C332.11 3.984 332.882 4.899 333.167 5.997C333.452 7.095 333.35 8.132 332.862 9.108C332.415 10.084 331.703 10.7753 330.727 11.182C329.751 11.5887 328.653 11.4463 327.433 10.755C326.213 10.023 324.932 9.49433 323.59 9.169C322.248 8.84366 320.886 8.681 319.503 8.681C315.396 8.681 312.285 9.88066 310.17 12.28C308.096 14.6387 307.059 18.0343 307.059 22.467C307.059 26.8997 308.096 30.3157 310.17 32.715C312.285 35.1143 315.396 36.314 319.503 36.314C320.804 36.314 322.126 36.1513 323.468 35.826C324.851 35.5007 326.172 34.9923 327.433 34.301C328.734 33.6097 329.873 33.4673 330.849 33.874C331.825 34.24 332.537 34.8907 332.984 35.826C333.472 36.7207 333.594 37.717 333.35 38.815C333.106 39.8723 332.415 40.7467 331.276 41.438C329.731 42.4547 327.86 43.2477 325.664 43.817C323.509 44.3863 321.353 44.671 319.198 44.671ZM344 44.549C340.828 44.549 339.242 42.9833 339.242 39.852V18.197C339.242 15.1063 340.747 13.561 343.756 13.561C346.765 13.561 348.27 15.1063 348.27 18.197V19.295C349.734 15.6757 352.764 13.7237 357.359 13.439C358.376 13.3577 359.148 13.622 359.677 14.232C360.246 14.8013 360.551 15.757 360.592 17.099C360.673 18.3597 360.409 19.356 359.799 20.088C359.23 20.82 358.254 21.2673 356.871 21.43L355.468 21.552C350.913 21.9993 348.636 24.3173 348.636 28.506V39.852C348.636 42.9833 347.091 44.549 344 44.549ZM379.4 44.671C375.862 44.671 372.812 44.0407 370.25 42.78C367.728 41.4787 365.776 39.669 364.394 37.351C363.052 34.9923 362.381 32.227 362.381 29.055C362.381 25.9643 363.031 23.26 364.333 20.942C365.675 18.5833 367.484 16.7533 369.762 15.452C372.08 14.11 374.743 13.439 377.753 13.439C382.104 13.439 385.561 14.8217 388.123 17.587C390.685 20.3117 391.966 24.0123 391.966 28.689C391.966 30.2343 391.01 31.007 389.099 31.007H371.165C371.49 33.3657 372.344 35.094 373.727 36.192C375.15 37.2493 377.102 37.778 379.583 37.778C380.559 37.778 381.657 37.6763 382.877 37.473C384.137 37.229 385.337 36.8223 386.476 36.253C387.655 35.6837 388.651 35.582 389.465 35.948C390.278 36.2733 390.827 36.8427 391.112 37.656C391.437 38.4693 391.437 39.3233 391.112 40.218C390.827 41.072 390.156 41.7837 389.099 42.353C387.675 43.1257 386.089 43.695 384.341 44.061C382.633 44.4677 380.986 44.671 379.4 44.671ZM378.119 19.539C376.167 19.539 374.581 20.1287 373.361 21.308C372.181 22.4873 371.449 24.1343 371.165 26.249H384.341C384.097 21.7757 382.023 19.539 378.119 19.539ZM407.449 44.671C405.212 44.671 403.24 44.244 401.532 43.39C399.824 42.536 398.462 41.377 397.445 39.913C396.469 38.449 395.981 36.802 395.981 34.972C395.981 32.8167 396.55 31.0883 397.689 29.787C398.828 28.4857 400.678 27.5707 403.24 27.042C405.802 26.4727 409.198 26.188 413.427 26.188H415.623V25.151C415.623 23.3617 415.216 22.101 414.403 21.369C413.59 20.5963 412.207 20.21 410.255 20.21C409.157 20.21 407.957 20.3523 406.656 20.637C405.355 20.881 403.952 21.308 402.447 21.918C401.308 22.406 400.353 22.4467 399.58 22.04C398.807 21.5927 398.299 20.942 398.055 20.088C397.811 19.1933 397.872 18.2987 398.238 17.404C398.645 16.5093 399.417 15.8587 400.556 15.452C402.467 14.72 404.257 14.2117 405.924 13.927C407.632 13.6017 409.198 13.439 410.621 13.439C415.257 13.439 418.714 14.4963 420.991 16.611C423.268 18.685 424.407 21.918 424.407 26.31V39.852C424.407 42.9833 422.984 44.549 420.137 44.549C417.25 44.549 415.806 42.9833 415.806 39.852V39.486C415.196 41.072 414.159 42.3327 412.695 43.268C411.272 44.2033 409.523 44.671 407.449 44.671ZM409.523 38.51C411.231 38.51 412.675 37.9203 413.854 36.741C415.033 35.5617 415.623 34.0367 415.623 32.166V30.946H413.488C410.357 30.946 408.14 31.2307 406.839 31.8C405.538 32.3287 404.887 33.264 404.887 34.606C404.887 35.7447 405.273 36.68 406.046 37.412C406.859 38.144 408.018 38.51 409.523 38.51ZM436.036 44.549C432.946 44.549 431.4 42.9833 431.4 39.852V18.197C431.4 15.1063 432.905 13.561 435.914 13.561C438.924 13.561 440.428 15.1063 440.428 18.197V18.38C441.323 16.8347 442.543 15.635 444.088 14.781C445.674 13.8863 447.504 13.439 449.578 13.439C451.693 13.439 453.482 13.9067 454.946 14.842C456.451 15.7773 457.59 17.2007 458.362 19.112C459.298 17.3227 460.64 15.94 462.388 14.964C464.178 13.9473 466.15 13.439 468.305 13.439C471.721 13.439 474.263 14.476 475.93 16.55C477.598 18.5833 478.431 21.735 478.431 26.005V39.852C478.431 41.3567 478.025 42.5157 477.211 43.329C476.439 44.1423 475.32 44.549 473.856 44.549C470.766 44.549 469.22 42.9833 469.22 39.852V26.31C469.22 24.3173 468.895 22.8737 468.244 21.979C467.634 21.0437 466.577 20.576 465.072 20.576C463.324 20.576 461.961 21.186 460.985 22.406C460.009 23.626 459.521 25.3543 459.521 27.591V39.852C459.521 42.9833 457.996 44.549 454.946 44.549C453.482 44.549 452.344 44.1423 451.53 43.329C450.717 42.5157 450.31 41.3567 450.31 39.852V26.31C450.31 24.3173 449.985 22.8737 449.334 21.979C448.684 21.0437 447.626 20.576 446.162 20.576C444.414 20.576 443.051 21.186 442.075 22.406C441.099 23.626 440.611 25.3543 440.611 27.591V39.852C440.611 42.9833 439.086 44.549 436.036 44.549Z" fill="#FA7154"/>
</svg>
